<svg width="300" height="300" xmlns="http://www.w3.org/2000/svg">
 <!-- Created with Method Draw - http://github.com/duopixel/Method-Draw/ -->

 <g id="Layer_1">
  <title>Layer 1</title>
  <path stroke-width="2" id="svg_17" d="m268.47748,41.03201c-9.37826,-9.72153 -19.49322,-17.50909 -27.79061,-18.57077c-0.4517,-0.06887 -0.91954,-0.10904 -1.41427,-0.12051l-54.6079,0c-0.87115,0 -1.73154,0.36154 -2.34456,1.03298c-0.60765,0.65422 -0.96794,1.57243 -0.96794,2.50786l0,147.7742c0,0.92969 0.33878,1.8192 0.96794,2.49638c0.62916,0.6657 1.45729,1.02725 2.34456,1.02725l98.75131,0c0.87115,0 1.70465,-0.35581 2.33381,-1.02725c0.62916,-0.67144 0.97869,-1.56095 0.97869,-2.49638l0,-98.33441c-0.19359,-11.41448 -8.57164,-23.86195 -18.25103,-34.28935zm-4.66224,5.00424c4.32884,4.5107 8.22211,9.61824 11.12592,14.54213c-2.51664,-1.06168 -5.15696,-1.84789 -7.63596,-2.47342c-5.4581,-1.30845 -10.7979,-1.83642 -14.11578,-2.04875c0.01613,-0.76326 0.02151,-1.62408 0.02151,-2.55951c0,-4.98702 -0.29576,-12.0974 -1.91437,-18.36417c-0.01613,-0.05739 -0.02689,-0.11478 -0.0484,-0.17216c4.10836,2.89236 8.58239,6.73162 12.56708,11.07589l0,-0.00001zm16.27751,124.0672l-92.1263,0l0,-140.704l51.31153,0l0,0.01148c2.23702,-0.14347 4.16752,2.21518 5.64631,7.60965c1.34436,5.13623 1.68314,11.83341 1.67776,16.47611c0.01075,3.40311 -0.14519,5.68715 -0.14519,5.68715l-0.26349,3.7417l3.5276,0.04017c0.01613,0 8.1522,0.1033 16.13232,2.03728c7.66823,1.76755 13.66407,5.29118 14.22333,9.27965c0.02151,0.35581 0.02689,0.71161 0.02151,1.04446l0,94.77635l-0.00538,0z" opacity="undefined" fill-opacity="null" stroke-opacity="null" stroke-dasharray="null" stroke="#000" fill="none"/>
  <g id="svg_30" stroke="null">
   <ellipse fill="#fff" opacity="undefined" cx="211.43756" cy="150.05102" id="svg_3" rx="11.13922" ry="12.25057" stroke="#000"/>
   <ellipse fill="#fff" opacity="undefined" cx="211.48397" cy="149.01147" id="svg_4" rx="4.17721" ry="4.59396" stroke="#000"/>
   <ellipse fill="#fff" opacity="undefined" cx="253.25603" cy="149.01147" id="svg_1" rx="11.13922" ry="12.25057" stroke="#000"/>
   <ellipse fill="#fff" opacity="undefined" cx="253.25603" cy="149.01147" id="svg_2" rx="4.17721" ry="4.59396" stroke="#000"/>
   <line stroke-linecap="null" stroke-linejoin="null" id="svg_5" y2="149.01147" x2="241.55985" y1="149.01147" x1="222.62319" opacity="undefined" fill-opacity="null" stroke-opacity="null" stroke-dasharray="null" fill="none" stroke="#000"/>
   <line stroke-linecap="null" stroke-linejoin="null" id="svg_6" y2="132.96579" x2="270.64134" y1="132.65953" x1="194.05924" opacity="undefined" fill-opacity="null" stroke-opacity="null" stroke-dasharray="null" fill="none" stroke="#000"/>
   <line stroke-linecap="null" stroke-linejoin="null" id="svg_8" y2="149.01147" x2="199.50932" y1="149.01147" x1="193.93971" opacity="undefined" fill-opacity="null" stroke-opacity="null" stroke-dasharray="null" fill="none" stroke="#000"/>
   <line stroke-linecap="null" stroke-linejoin="null" id="svg_9" y2="149.01147" x2="270.52181" y1="149.01147" x1="264.9522" opacity="undefined" fill-opacity="null" stroke-opacity="null" stroke-dasharray="null" fill="none" stroke="#000"/>
   <line stroke-linecap="null" stroke-linejoin="null" id="svg_10" y2="148.1977" x2="194.81174" y1="133.29106" x1="194.85704" opacity="undefined" fill-opacity="null" stroke-opacity="null" stroke-dasharray="null" fill="none" stroke="#000"/>
   <line stroke-linecap="null" stroke-linejoin="null" id="svg_11" y2="148.1977" x2="269.73038" y1="133.29106" x1="269.77569" opacity="undefined" fill-opacity="null" stroke-opacity="null" stroke-dasharray="null" fill="none" stroke="#000"/>
   <line stroke-linecap="null" stroke-linejoin="null" id="svg_15" y2="104.55395" x2="233.09812" y1="132.72795" x1="253.19436" opacity="undefined" fill-opacity="null" stroke-opacity="null" stroke-dasharray="null" fill="none" stroke="#000"/>
   <ellipse ry="0.40035" rx="0.36403" id="svg_18" cy="145.15691" cx="227.06424" opacity="undefined" fill-opacity="null" stroke-opacity="null" stroke-dasharray="null" fill="none" stroke="#000"/>
   <ellipse ry="0.40035" rx="0.36403" id="svg_19" cy="145.15691" cx="237.25699" opacity="undefined" fill-opacity="null" stroke-opacity="null" stroke-dasharray="null" fill="none" stroke="#000"/>
   <path fill="none" fill-opacity="null" stroke-dasharray="null" stroke-linejoin="null" stroke-linecap="null" stroke-opacity="null" opacity="undefined" d="m214.37079,109.36069c-1.66144,5.68561 -7.23353,8.79721 -12.45122,6.95309c-5.21769,-1.84412 -8.09825,-7.9432 -6.43681,-13.62881" id="svg_23" stroke="#000"/>
   <line fill="none" stroke-dasharray="null" stroke-opacity="null" fill-opacity="null" opacity="undefined" x1="232.739" y1="104.9212" x2="211.74907" y2="132.34784" id="svg_7" stroke-linejoin="null" stroke-linecap="null" stroke="#000"/>
   <line fill="none" stroke-dasharray="null" stroke-opacity="null" fill-opacity="null" opacity="undefined" x1="228.58258" y1="104.9212" x2="207.59265" y2="132.34784" id="svg_12" stroke-linejoin="null" stroke-linecap="null" stroke="#000"/>
   <line fill="none" stroke-dasharray="null" stroke-opacity="null" fill-opacity="null" opacity="undefined" x1="232.739" y1="104.9212" x2="211.74907" y2="132.34784" id="svg_13" stroke-linejoin="null" stroke-linecap="null" stroke="#000"/>
   <line stroke-linecap="null" stroke-linejoin="null" id="svg_14" y2="104.55395" x2="237.25454" y1="132.72795" x1="257.35078" opacity="undefined" fill-opacity="null" stroke-opacity="null" stroke-dasharray="null" fill="none" stroke="#000"/>
   <line fill="none" stroke-dasharray="null" stroke-opacity="null" fill-opacity="null" opacity="undefined" x1="228.02037" y1="104.94766" x2="238.04391" y2="104.94766" id="svg_16" stroke-linejoin="null" stroke-linecap="null" stroke="#000"/>
   <line fill="none" stroke-dasharray="null" stroke-opacity="null" fill-opacity="null" opacity="undefined" x1="228.02037" y1="98.8735" x2="238.04391" y2="98.8735" id="svg_21" stroke-linejoin="null" stroke-linecap="null" stroke="#000"/>
   <line fill="none" stroke-dasharray="null" stroke-opacity="null" opacity="undefined" x1="237.29643" y1="99.16134" x2="237.29643" y2="105.05566" id="svg_24" stroke-linejoin="null" stroke-linecap="null" stroke="#000"/>
   <line fill="none" stroke-dasharray="null" stroke-opacity="null" opacity="undefined" x1="228.94202" y1="97.98341" x2="228.94202" y2="105.05566" id="svg_25" stroke-linejoin="null" stroke-linecap="null" stroke="#000"/>
   <line fill="none" stroke-dasharray="null" stroke-opacity="null" fill-opacity="null" opacity="undefined" x1="227.23219" y1="132.39009" x2="230.75514" y2="119.21987" id="svg_26" stroke-linejoin="null" stroke-linecap="null" stroke="#000"/>
   <line fill="none" stroke-dasharray="null" stroke-opacity="null" fill-opacity="null" opacity="undefined" x1="237.63327" y1="132.75908" x2="234.94912" y2="119.79702" id="svg_27" stroke-linejoin="null" stroke-linecap="null" stroke="#000"/>
   <line fill="none" stroke-dasharray="null" stroke-opacity="null" fill-opacity="null" opacity="undefined" x1="212.52734" y1="113.13564" x2="220.11669" y2="115.75622" id="svg_28" stroke-linejoin="null" stroke-linecap="null" stroke="#000"/>
   <line fill="none" stroke-dasharray="null" stroke-opacity="null" fill-opacity="null" opacity="undefined" x1="205.08173" y1="107.04294" x2="221.83795" y2="112.8716" id="svg_20" stroke-linejoin="null" stroke-linecap="null" stroke="#000"/>
   <ellipse ry="0.40035" rx="0.36403" id="svg_17" cy="101.9658" cx="232.95517" opacity="undefined" fill-opacity="null" stroke-opacity="null" stroke-dasharray="null" fill="none" stroke="#000"/>
   <path fill="none" fill-opacity="null" stroke-dasharray="null" stroke-linejoin="null" stroke-linecap="null" stroke-opacity="null" opacity="undefined" d="m199.78511,104.50964c0.90427,-3.12695 3.98064,-4.83995 6.87434,-3.82782c2.89371,1.01213 4.50515,4.36478 3.60088,7.49173" id="svg_22" stroke="#000"/>
   <line stroke-linecap="null" stroke-linejoin="null" id="svg_29" y2="110.28668" x2="214.40429" y1="103.68365" x1="195.54733" opacity="undefined" fill-opacity="null" stroke-opacity="null" stroke-dasharray="null" fill="none" stroke="#000"/>
   <line fill="none" stroke-dasharray="null" stroke-opacity="null" fill-opacity="null" opacity="undefined" x1="223.80546" y1="116.76161" x2="247.08326" y2="124.24983" id="svg_32" stroke-linejoin="null" stroke-linecap="null" stroke="#000"/>
   <line fill="none" stroke-dasharray="null" stroke-opacity="null" fill-opacity="null" opacity="undefined" x1="252.24601" y1="125.57236" x2="260.47764" y2="128.20692" id="svg_33" stroke-linejoin="null" stroke-linecap="null" stroke="#000"/>
   <line fill="none" stroke-dasharray="null" stroke-opacity="null" fill-opacity="null" opacity="undefined" x1="226.10063" y1="114.14264" x2="243.80884" y2="119.81916" id="svg_35" stroke-linejoin="null" stroke-linecap="null" stroke="#000"/>
   <line fill="none" stroke-dasharray="null" stroke-opacity="null" fill-opacity="null" opacity="undefined" x1="249.02976" y1="121.08624" x2="261.26209" y2="125.01488" id="svg_36" stroke-linejoin="null" stroke-linecap="null" stroke="#000"/>
   <line stroke-linecap="null" stroke-linejoin="null" id="svg_40" y2="133.39371" x2="259.02643" y1="120.255" x1="262.81082" opacity="undefined" fill-opacity="null" stroke-opacity="null" stroke-dasharray="null" fill="none" stroke="#000"/>
   <line stroke-linecap="null" stroke-linejoin="null" id="svg_42" y2="125.00736" x2="274.29651" y1="121.065" x1="262.23525" opacity="undefined" fill-opacity="null" stroke-opacity="null" stroke-dasharray="null" fill="none" stroke="#000"/>
   <line stroke-linecap="null" stroke-linejoin="null" id="svg_43" y2="135.9534" x2="270.34282" y1="124.13346" x1="273.75547" opacity="undefined" fill-opacity="null" stroke-opacity="null" stroke-dasharray="null" fill="none" stroke="#000"/>
  </g>
  <path stroke="#000" stroke-width="2" fill="#fff" opacity="undefined" d="m15.03435,49.00025l-8.08085,7.55606l40.61404,0l0,-37.98245l-32.53319,30.42639zm19.04567,-16.69682c0.29344,-0.27002 0.75728,-0.27002 1.04757,0l1.8301,1.71011c0.29029,0.27002 0.29344,0.70825 0.00315,0.97826c-0.14514,0.13427 -0.33604,0.20214 -0.52379,0.20214c-0.1909,0 -0.37864,-0.06787 -0.52063,-0.20214l-1.83641,-1.71011c-0.28872,-0.27002 -0.28872,-0.70677 0,-0.97826l0.00001,0zm-2.52585,2.36671c0.29029,-0.27002 0.75728,-0.27002 1.04442,0l3.40147,3.17824c0.29029,0.27002 0.29029,0.70825 0.00315,0.97531c-0.14514,0.13575 -0.33604,0.20509 -0.52694,0.20509s-0.37864,-0.06787 -0.52063,-0.20214l-3.40147,-3.17824c-0.29029,-0.27002 -0.29029,-0.70825 0,-0.97826zm-2.53059,2.36228c0.29029,-0.27002 0.75728,-0.27002 1.04757,0l1.8301,1.71306c0.29029,0.27002 0.28714,0.70825 -0.00315,0.97826c-0.14514,0.13575 -0.33289,0.20362 -0.52063,0.20362c-0.1909,0 -0.37864,-0.06787 -0.52379,-0.20362l-1.8301,-1.71159c-0.28872,-0.27002 -0.28872,-0.70972 0,-0.97974zm-2.52585,2.36523c0.29029,-0.27002 0.75728,-0.26706 1.04757,0.00295l1.82694,1.71011c0.28872,0.27149 0.28872,0.70825 0,0.97826c-0.14514,0.13575 -0.33446,0.20362 -0.52379,0.20362c-0.18775,0 -0.37864,-0.06787 -0.52379,-0.20362l-1.82694,-1.71306c-0.28872,-0.27149 -0.28872,-0.70825 0,-0.97826zm-2.52901,2.36671c0.28872,-0.27149 0.75571,-0.27149 1.046,0l3.3983,3.17676c0.29029,0.27149 0.29029,0.70972 0,0.98121c-0.14514,0.13575 -0.33289,0.20362 -0.52063,0.20362c-0.1909,0 -0.3818,-0.06787 -0.52694,-0.20362l-3.39673,-3.17971c-0.28872,-0.27149 -0.28872,-0.70825 0,-0.97826zm-3.14114,11.24778c-0.14357,0.13723 -0.33446,0.20509 -0.52379,0.20509c-0.18775,0 -0.37548,-0.0664 -0.52063,-0.20214l-3.3983,-3.17676c-0.29029,-0.27002 -0.29029,-0.70677 0,-0.97826s0.75571,-0.27149 1.04442,0l3.3983,3.17676c0.28872,0.26854 0.28872,0.7053 0,0.97531zm0.96238,-3.83189c-0.14673,0.13723 -0.33762,0.20509 -0.52536,0.20509c-0.18932,0 -0.37864,-0.0664 -0.52063,-0.20214l-1.83326,-1.71306c-0.29029,-0.27002 -0.29029,-0.70677 0,-0.97383c0.29029,-0.27297 0.75728,-0.27592 1.04757,-0.00443l1.83168,1.71454c0.28872,0.26559 0.28872,0.70382 0,0.97383zm2.52585,-2.36376c-0.14514,0.13575 -0.33289,0.20362 -0.52379,0.20362c-0.18775,0 -0.37706,-0.06787 -0.52221,-0.20362l-1.82852,-1.71159c-0.29029,-0.27149 -0.29029,-0.70825 0,-0.97974s0.75728,-0.26854 1.046,0.00295l1.82852,1.71306c0.28872,0.27002 0.28872,0.70825 0,0.97531zm15.36181,2.36228l-13.67843,0l13.67843,-12.79263l0,12.79263zm-0.18932,-16.55074c-0.14199,0.13575 -0.33289,0.20362 -0.52063,0.20362c-0.1909,0 -0.3818,-0.06787 -0.52694,-0.20362l-1.8301,-1.71011c-0.29029,-0.27002 -0.29029,-0.70677 0,-0.97826c0.28714,-0.27002 0.75571,-0.27002 1.04442,0l1.8301,1.71011c0.29029,0.27149 0.29187,0.70825 0.00315,0.97826zm4.09564,-0.89711c-0.14514,0.13575 -0.33604,0.20214 -0.52379,0.20214s-0.37864,-0.0664 -0.52063,-0.20214l-3.3983,-3.17824c-0.29029,-0.27002 -0.29029,-0.70972 0,-0.97974s0.76044,-0.26706 1.04757,0.00295l3.3983,3.17824c0.28872,0.27002 0.28556,0.70825 -0.00315,0.97679z" id="svg_31"/>
  <path stroke="#000" stroke-width="2" fill="#fff" opacity="undefined" d="m91.19249,40.89655c0,-11.61426 9.47578,-21.02182 21.17425,-21.02182c11.69848,0 21.17423,9.40756 21.17423,21.02182c0,11.61426 -9.47575,21.02182 -21.17423,21.02182c-11.69848,0 -21.17425,-9.40756 -21.17425,-21.02182zm71.19144,59.50516l0,-10.61662c0,-11.17024 -9.11584,-20.22694 -20.37361,-20.22694l-59.35277,0c-11.25124,0 -20.3736,9.05669 -20.3736,20.22694l0,10.61662c-0.01967,0.24098 -0.03281,0.4885 -0.03281,0.73925l0,61.14978c0,4.75142 3.87727,8.60076 8.66315,8.60076c4.77933,0 8.6664,-3.84935 8.6664,-8.60076l0,-60.24443l5.80931,0l0,68.85169l0.04264,0l0,97.28537c0,6.32436 5.17297,11.46332 11.54975,11.46332c6.38007,0 11.54975,-5.13244 11.54975,-11.46332l0,-97.28537l7.62002,0l0,97.28537c0,6.32436 5.17617,11.46332 11.54973,11.46332c6.38005,0 11.54972,-5.13244 11.54972,-11.46332l0,-97.28537l0.03609,0l0,-68.85169l5.80932,0l0,60.24116c0,4.75143 3.88707,8.60402 8.66641,8.60402c4.78593,0 8.66315,-3.85259 8.66315,-8.60402l0,-61.14977c-0.00326,-0.25401 -0.02297,-0.49502 -0.04265,-0.736l0,0.00001z" id="svg_34"/>
  <path stroke-width="2" fill="#fff" stroke="#000" opacity="undefined" d="m37.67289,97.16023c2.22541,-2.49779 2.67273,-5.9064 1.46211,-8.77303l-4.4677,5.08606l-4.40406,-0.83589l-1.45928,-4.14148l4.45641,-5.07425c-3.06538,-0.75287 -6.44249,0.15604 -8.6581,2.64394c-2.33664,2.62286 -2.71903,6.255 -1.27277,9.20187l-11.64547,13.07332c-1.23914,1.38992 -1.08818,3.49802 0.33561,4.70721c1.42379,1.20834 3.58281,1.0623 4.82152,-0.32764l11.63183,-13.06042c3.2019,1.00748 6.85246,0.13508 9.19991,-2.4997l0,0l-0.00001,0.00001z" id="svg_37"/>
  <path stroke-width="2" fill="#fff" stroke="#000" opacity="undefined" d="m10.80388,181.62531c1.04935,0.55657 2.48139,1.85607 3.59034,1.38062c0.7274,-0.30774 1.15305,-2.05021 1.60498,-2.96742c3.40191,-6.89479 7.09916,-14.73685 9.7903,-21.44591c0,-0.29932 0.15454,-0.53074 -0.07508,-0.93766c1.50538,-2.52086 2.52725,-5.29055 4.17197,-8.0957c0.52089,-0.89138 1.05082,-2.12837 1.78144,-2.48481l1.34937,-0.57941c1.71541,-0.45381 2.96837,-0.43818 4.16438,0.74532c0.60645,0.60346 0.88546,1.59883 1.47207,2.19809c0.3967,0.40932 1.9082,1.41609 2.47027,1.26042c0.43674,-0.12141 0.79666,-0.57401 1.10281,-1.14744l1.06601,-2.02617c0.29883,-0.5764 0.46887,-1.1312 0.32952,-1.57418c-0.17937,-0.5704 -1.82586,-1.32354 -2.37711,-1.44135c-0.80891,-0.17851 -1.76769,0.12744 -2.5915,-0.06491c-1.61901,-0.38288 -2.31752,-1.45277 -2.88424,-3.18263c-3.99436,-2.41567 -9.37195,-3.98625 -15.63328,-1.96007c-1.69846,0.54997 -3.32654,0.96711 -4.44307,2.08449c-0.22378,0.64913 0.21882,0.77838 0.68301,0.77055c-0.36312,0.34021 -0.94971,0.53736 -0.61113,1.33617c3.8214,-1.80559 11.24219,-2.42949 11.74612,1.26644c0.11014,0.82285 -0.60501,1.95585 -1.04468,2.8917c-1.38617,2.95242 -3.07996,5.34765 -4.30838,8.02178c-0.45661,0.02645 -0.56061,0.2831 -0.80425,0.452c-3.98822,5.98718 -8.3489,13.45779 -12.09961,20.15904c-0.49955,0.89137 -1.68182,2.20891 -1.53488,3.00289c0.22057,1.21475 2.03559,1.78036 3.08465,2.33814l0,0l-0.00003,0.00001z" id="svg_38"/>
 </g>
</svg>